<svg xmlns="http://www.w3.org/2000/svg" width="16" height="16" viewBox="0 0 16 16" fill="none">
  <script xmlns=""/>
  <style>
		path {
			fill: #161819;
		}

		@media ( prefers-color-scheme: dark ) {
			path {
				fill: #FFFFFF;
			}
		}
	</style>
  <g clip-path="url(#clip0_1425_6594)">
    <g clip-path="url(#clip1_1425_6594)">
      <path d="M2.24121 5.75201C2.24121 8.91889 4.83219 11.5098 7.99912 11.5098C11.1661 11.5098 13.757 8.91889 13.757 5.75201V-0.00585938H7.99912C4.83219 -0.00585938 2.24121 2.58508 2.24121 5.75201ZM7.99912 8.51133C6.48115 8.51133 5.23767 7.26994 5.23767 5.75201C5.23767 4.23404 6.48115 2.99056 7.99912 2.99056H10.7585V5.75201C10.7585 7.26994 9.5171 8.51133 7.99912 8.51133ZM7.99912 13.0008C9.50462 13.0008 10.9041 12.537 12.0665 11.7448L13.7487 14.2255C10.2782 16.5898 5.72012 16.5898 2.24956 14.2255L3.93179 11.7448C5.09207 12.537 6.49363 13.0008 7.99912 13.0008Z" fill="#161819"/>
      <path d="M2.24121 5.75201C2.24121 8.91889 4.83219 11.5098 7.99912 11.5098C11.1661 11.5098 13.757 8.91889 13.757 5.75201V-0.00585938H7.99912C4.83219 -0.00585938 2.24121 2.58508 2.24121 5.75201ZM7.99912 8.51133C6.48115 8.51133 5.23767 7.26994 5.23767 5.75201C5.23767 4.23404 6.48115 2.99056 7.99912 2.99056H10.7585V5.75201C10.7585 7.26994 9.5171 8.51133 7.99912 8.51133ZM7.99912 13.0008C9.50462 13.0008 10.9041 12.537 12.0665 11.7448L13.7487 14.2255C10.2782 16.5898 5.72012 16.5898 2.24956 14.2255L3.93179 11.7448C5.09207 12.537 6.49363 13.0008 7.99912 13.0008Z" fill="#161819"/>
    </g>
  </g>
  <defs>
    <clipPath id="clip0_1425_6594">
      <rect width="16" height="16" fill="white"/>
    </clipPath>
    <clipPath id="clip1_1425_6594">
      <rect width="11.5158" height="16.0046" fill="white" transform="translate(2.24219 -0.00390625)"/>
    </clipPath>
  </defs>
</svg>