<svg xmlns="http://www.w3.org/2000/svg" width="112" height="17" viewBox="0 0 112 17" fill="none">
  <script xmlns=""/>
  <path d="M17.9507 2.00548H27.0816V3.71161H23.4956V13.2849H21.5209V3.71161H17.9507V2.00548Z" fill="#161819"/>
  <path d="M27.473 2.00548H29.2739V6.19181H29.3055C29.5266 5.8232 29.8531 5.51778 30.2849 5.27555C30.7272 5.0228 31.217 4.89641 31.7541 4.89641C32.6493 4.89641 33.3549 5.12811 33.8709 5.5915C34.387 6.0549 34.645 6.74998 34.645 7.67677V13.2849H32.8441V8.15069C32.823 7.50826 32.6861 7.04487 32.4334 6.76052C32.1806 6.46563 31.7857 6.31819 31.2486 6.31819C30.9431 6.31819 30.6693 6.37611 30.4271 6.49196C30.1849 6.59727 29.9795 6.74998 29.811 6.95008C29.6425 7.13965 29.5108 7.36608 29.4161 7.62938C29.3213 7.89267 29.2739 8.17175 29.2739 8.46664V13.2849H27.473V2.00548Z" fill="#161819"/>
  <path d="M41.4888 8.48244C41.4677 8.19808 41.4045 7.92426 41.2992 7.66097C41.2044 7.39768 41.0675 7.17125 40.8885 6.98168C40.72 6.78158 40.5093 6.6236 40.2566 6.50776C40.0143 6.38138 39.7405 6.31819 39.4351 6.31819C39.1192 6.31819 38.8295 6.37611 38.5662 6.49196C38.3135 6.59727 38.0923 6.74998 37.9028 6.95008C37.7237 7.13965 37.5763 7.36608 37.4604 7.62938C37.3551 7.89267 37.2972 8.17702 37.2866 8.48244H41.4888ZM37.2866 9.66725C37.2866 9.9832 37.3288 10.2886 37.413 10.5835C37.5078 10.8784 37.6447 11.1364 37.8238 11.3576C38.0028 11.5787 38.2292 11.7578 38.5031 11.8947C38.7769 12.0211 39.1034 12.0843 39.4825 12.0843C40.0091 12.0843 40.4303 11.9737 40.7463 11.7525C41.0728 11.5208 41.315 11.1785 41.473 10.7257H43.1791C43.0843 11.168 42.9211 11.5629 42.6894 11.9105C42.4577 12.258 42.1786 12.5529 41.8521 12.7951C41.5256 13.0268 41.157 13.2006 40.7463 13.3165C40.3461 13.4428 39.9248 13.506 39.4825 13.506C38.8401 13.506 38.2714 13.4007 37.7764 13.1901C37.2814 12.9794 36.8601 12.6846 36.5126 12.3054C36.1756 11.9263 35.9175 11.4734 35.7385 10.9468C35.57 10.4203 35.4857 9.84102 35.4857 9.20912C35.4857 8.62988 35.5753 8.08224 35.7543 7.56619C35.9439 7.0396 36.2072 6.58148 36.5442 6.19181C36.8917 5.7916 37.3077 5.47566 37.7922 5.24396C38.2766 5.01226 38.8243 4.89641 39.4351 4.89641C40.0775 4.89641 40.6515 5.03333 41.157 5.30715C41.6731 5.57044 42.0996 5.92325 42.4366 6.36558C42.7736 6.80791 43.0159 7.31869 43.1633 7.89793C43.3213 8.46664 43.3634 9.05641 43.2897 9.66725H37.2866Z" fill="#161819"/>
  <path d="M44.248 2.00548H48.9241C49.7877 2.00548 50.5354 2.15292 51.1673 2.44781C51.7992 2.74269 52.3153 3.14816 52.7155 3.66421C53.1157 4.16973 53.4106 4.76477 53.6001 5.44933C53.8002 6.13388 53.9003 6.86583 53.9003 7.64517C53.9003 8.42451 53.8002 9.15646 53.6001 9.84102C53.4106 10.5256 53.1157 11.1259 52.7155 11.6419C52.3153 12.1474 51.7992 12.5477 51.1673 12.8425C50.5354 13.1374 49.7877 13.2849 48.9241 13.2849H44.248V2.00548ZM46.2227 11.6735H48.1658C48.9346 11.6735 49.5612 11.5735 50.0457 11.3734C50.5407 11.1627 50.9251 10.8784 51.1989 10.5203C51.4833 10.1517 51.6728 9.72517 51.7676 9.24072C51.8729 8.74573 51.9256 8.21388 51.9256 7.64517C51.9256 7.07646 51.8729 6.54988 51.7676 6.06543C51.6728 5.57044 51.4833 5.14391 51.1989 4.78583C50.9251 4.41723 50.5407 4.13287 50.0457 3.93277C49.5612 3.72214 48.9346 3.61682 48.1658 3.61682H46.2227V11.6735Z" fill="#161819"/>
  <path d="M54.7325 5.11758H56.4228V6.69733H56.4544C56.5071 6.47616 56.6071 6.26026 56.7546 6.04963C56.9125 5.839 57.0968 5.64943 57.3075 5.48092C57.5286 5.30188 57.7709 5.15971 58.0341 5.05439C58.2974 4.94907 58.566 4.89641 58.8398 4.89641C59.0505 4.89641 59.1926 4.90168 59.2664 4.91221C59.3506 4.92274 59.4349 4.93328 59.5191 4.94381V6.68153C59.3927 6.66046 59.2611 6.64467 59.1242 6.63414C58.9978 6.61307 58.8714 6.60254 58.745 6.60254C58.4396 6.60254 58.15 6.66573 57.8762 6.79211C57.6129 6.90796 57.3812 7.087 57.1811 7.32922C56.981 7.56092 56.823 7.85054 56.7072 8.19808C56.5913 8.54563 56.5334 8.94583 56.5334 9.39869V13.2849H54.7325V5.11758Z" fill="#161819"/>
  <path d="M63.0891 13.506C62.4361 13.506 61.8516 13.4007 61.3356 13.1901C60.8301 12.9689 60.3983 12.6688 60.0402 12.2896C59.6926 11.9105 59.4241 11.4576 59.2345 10.931C59.0555 10.4045 58.9659 9.82522 58.9659 9.19332C58.9659 8.57196 59.0555 7.99798 59.2345 7.4714C59.4241 6.94482 59.6926 6.49196 60.0402 6.11282C60.3983 5.73368 60.8301 5.43879 61.3356 5.22816C61.8516 5.007 62.4361 4.89641 63.0891 4.89641C63.742 4.89641 64.3213 5.007 64.8268 5.22816C65.3429 5.43879 65.7747 5.73368 66.1222 6.11282C66.4803 6.49196 66.7488 6.94482 66.9279 7.4714C67.1174 7.99798 67.2122 8.57196 67.2122 9.19332C67.2122 9.82522 67.1174 10.4045 66.9279 10.931C66.7488 11.4576 66.4803 11.9105 66.1222 12.2896C65.7747 12.6688 65.3429 12.9689 64.8268 13.1901C64.3213 13.4007 63.742 13.506 63.0891 13.506ZM63.0891 12.0843C63.4893 12.0843 63.8368 12 64.1317 11.8315C64.4266 11.663 64.6688 11.4418 64.8584 11.168C65.048 10.8942 65.1849 10.5888 65.2691 10.2518C65.3639 9.90421 65.4113 9.5514 65.4113 9.19332C65.4113 8.84578 65.3639 8.49824 65.2691 8.15069C65.1849 7.80315 65.048 7.49773 64.8584 7.23444C64.6688 6.96062 64.4266 6.73945 64.1317 6.57095C63.8368 6.40244 63.4893 6.31819 63.0891 6.31819C62.6889 6.31819 62.3413 6.40244 62.0465 6.57095C61.7516 6.73945 61.5093 6.96062 61.3198 7.23444C61.1302 7.49773 60.988 7.80315 60.8932 8.15069C60.809 8.49824 60.7669 8.84578 60.7669 9.19332C60.7669 9.5514 60.809 9.90421 60.8932 10.2518C60.988 10.5888 61.1302 10.8942 61.3198 11.168C61.5093 11.4418 61.7516 11.663 62.0465 11.8315C62.3413 12 62.6889 12.0843 63.0891 12.0843Z" fill="#161819"/>
  <path d="M68.0933 5.11758H69.7994V6.2234H69.831C70.0838 5.74948 70.4366 5.41247 70.8895 5.21236C71.3423 5.00173 71.832 4.89641 72.3586 4.89641C73.001 4.89641 73.5592 5.01226 74.0331 5.24396C74.5176 5.46512 74.9178 5.77581 75.2338 6.17601C75.5497 6.56568 75.7867 7.02381 75.9446 7.55039C76.1026 8.07697 76.1816 8.64041 76.1816 9.24072C76.1816 9.78836 76.1079 10.3202 75.9604 10.8363C75.8235 11.3523 75.6076 11.8104 75.3127 12.2106C75.0284 12.6003 74.665 12.9163 74.2227 13.1585C73.7804 13.3902 73.2591 13.506 72.6588 13.506C72.3955 13.506 72.1322 13.4797 71.8689 13.427C71.6056 13.3849 71.3528 13.3112 71.1106 13.2059C70.8684 13.1006 70.642 12.9689 70.4313 12.8109C70.2312 12.6424 70.0627 12.4476 69.9258 12.2264H69.8942V16.3022H68.0933V5.11758ZM74.3807 9.20912C74.3807 8.84051 74.3333 8.48244 74.2385 8.13489C74.1437 7.78735 74.0016 7.48193 73.812 7.21864C73.6224 6.94482 73.3855 6.72892 73.1011 6.57095C72.8167 6.40244 72.4903 6.31819 72.1217 6.31819C71.3634 6.31819 70.7894 6.58148 70.3997 7.10806C70.0206 7.63464 69.831 8.335 69.831 9.20912C69.831 9.61986 69.8784 10.0043 69.9732 10.3623C70.0785 10.7099 70.2312 11.01 70.4313 11.2628C70.6314 11.5156 70.8684 11.7157 71.1422 11.8631C71.4266 12.0105 71.753 12.0843 72.1217 12.0843C72.5324 12.0843 72.8799 12 73.1643 11.8315C73.4486 11.663 73.6803 11.4471 73.8594 11.1838C74.0489 10.91 74.1806 10.6046 74.2543 10.2676C74.3386 9.92001 74.3807 9.5672 74.3807 9.20912Z" fill="#161819"/>
  <path d="M78.588 9.52507C78.588 9.95687 78.6617 10.3255 78.8092 10.6309C78.9566 10.9363 79.162 11.1891 79.4253 11.3892C79.6886 11.5787 79.9887 11.7209 80.3257 11.8157C80.6733 11.9 81.0471 11.9421 81.4473 11.9421C81.8791 11.9421 82.2477 11.8947 82.5532 11.7999C82.8586 11.6946 83.1061 11.5629 83.2956 11.405C83.4852 11.247 83.6221 11.068 83.7064 10.8679C83.7906 10.6572 83.8328 10.4466 83.8328 10.236C83.8328 9.80416 83.7327 9.48821 83.5326 9.28811C83.343 9.07748 83.1324 8.93003 82.9007 8.84578C82.5005 8.69834 82.0318 8.56143 81.4947 8.43505C80.9682 8.29813 80.3152 8.12436 79.5358 7.91373C79.0514 7.78735 78.6459 7.62411 78.3194 7.42401C78.0035 7.21338 77.7507 6.98168 77.5612 6.72892C77.3716 6.47616 77.2347 6.2076 77.1504 5.92325C77.0767 5.6389 77.0398 5.34928 77.0398 5.05439C77.0398 4.48568 77.1557 3.99596 77.3874 3.58523C77.6296 3.16396 77.9456 2.81642 78.3352 2.54259C78.7249 2.26877 79.1672 2.06867 79.6622 1.94229C80.1572 1.80538 80.6575 1.73692 81.163 1.73692C81.7528 1.73692 82.3057 1.81591 82.8217 1.97388C83.3483 2.12133 83.8064 2.34776 84.1961 2.65318C84.5963 2.95859 84.9122 3.33773 85.1439 3.79059C85.3756 4.23292 85.4915 4.74897 85.4915 5.33874H83.5168C83.4641 4.61206 83.2167 4.10128 82.7743 3.80639C82.332 3.50097 81.7686 3.34826 81.084 3.34826C80.8523 3.34826 80.6153 3.37459 80.3731 3.42725C80.1309 3.46938 79.9097 3.54837 79.7096 3.66421C79.5095 3.76953 79.341 3.91697 79.2041 4.10654C79.0777 4.29611 79.0145 4.53307 79.0145 4.81743C79.0145 5.21763 79.1356 5.53358 79.3779 5.76528C79.6306 5.98644 79.9571 6.15495 80.3573 6.27079C80.3994 6.28133 80.5627 6.32872 80.847 6.41297C81.1419 6.48669 81.4684 6.57095 81.8265 6.66573C82.1846 6.76052 82.5321 6.8553 82.8691 6.95008C83.2167 7.03434 83.4641 7.09753 83.6116 7.13965C83.9802 7.2555 84.3014 7.41348 84.5752 7.61358C84.8491 7.81368 85.0755 8.04538 85.2545 8.30867C85.4441 8.56143 85.581 8.83525 85.6653 9.13013C85.76 9.42502 85.8074 9.71991 85.8074 10.0148C85.8074 10.6467 85.6758 11.1891 85.4125 11.6419C85.1597 12.0843 84.8227 12.4476 84.4015 12.732C83.9802 13.0163 83.501 13.2217 82.9639 13.3481C82.4268 13.485 81.8791 13.5534 81.321 13.5534C80.6785 13.5534 80.073 13.4744 79.5042 13.3165C78.9355 13.1585 78.4406 12.9163 78.0193 12.5898C77.598 12.2633 77.261 11.8473 77.0082 11.3418C76.7555 10.8257 76.6238 10.2202 76.6133 9.52507H78.588Z" fill="#161819"/>
  <path d="M85.7986 5.11758H87.1571V2.66897H88.958V5.11758H90.5852V6.46036H88.958V10.8205C88.958 11.01 88.9633 11.1733 88.9738 11.3102C88.9949 11.4471 89.0318 11.5629 89.0844 11.6577C89.1476 11.7525 89.2371 11.8262 89.353 11.8789C89.4688 11.921 89.6268 11.9421 89.8269 11.9421C89.9533 11.9421 90.0797 11.9421 90.206 11.9421C90.3324 11.9316 90.4588 11.9105 90.5852 11.8789V13.2691C90.3851 13.2901 90.1902 13.3112 90.0007 13.3323C89.8111 13.3533 89.6163 13.3639 89.4162 13.3639C88.9422 13.3639 88.5578 13.3217 88.263 13.2375C87.9786 13.1427 87.7522 13.011 87.5837 12.8425C87.4257 12.6635 87.3151 12.4423 87.2519 12.179C87.1993 11.9158 87.1677 11.6156 87.1571 11.2786V6.46036H85.7986V5.11758Z" fill="#161819"/>
  <path d="M94.9612 13.506C94.3082 13.506 93.7237 13.4007 93.2077 13.1901C92.7022 12.9689 92.2704 12.6688 91.9123 12.2896C91.5647 11.9105 91.2962 11.4576 91.1066 10.931C90.9276 10.4045 90.8381 9.82522 90.8381 9.19332C90.8381 8.57196 90.9276 7.99798 91.1066 7.4714C91.2962 6.94482 91.5647 6.49196 91.9123 6.11282C92.2704 5.73368 92.7022 5.43879 93.2077 5.22816C93.7237 5.007 94.3082 4.89641 94.9612 4.89641C95.6142 4.89641 96.1934 5.007 96.6989 5.22816C97.215 5.43879 97.6468 5.73368 97.9943 6.11282C98.3524 6.49196 98.6209 6.94482 98.8 7.4714C98.9895 7.99798 99.0843 8.57196 99.0843 9.19332C99.0843 9.82522 98.9895 10.4045 98.8 10.931C98.6209 11.4576 98.3524 11.9105 97.9943 12.2896C97.6468 12.6688 97.215 12.9689 96.6989 13.1901C96.1934 13.4007 95.6142 13.506 94.9612 13.506ZM94.9612 12.0843C95.3614 12.0843 95.7089 12 96.0038 11.8315C96.2987 11.663 96.5409 11.4418 96.7305 11.168C96.9201 10.8942 97.057 10.5888 97.1412 10.2518C97.236 9.90421 97.2834 9.5514 97.2834 9.19332C97.2834 8.84578 97.236 8.49824 97.1412 8.15069C97.057 7.80315 96.9201 7.49773 96.7305 7.23444C96.5409 6.96062 96.2987 6.73945 96.0038 6.57095C95.7089 6.40244 95.3614 6.31819 94.9612 6.31819C94.561 6.31819 94.2135 6.40244 93.9186 6.57095C93.6237 6.73945 93.3815 6.96062 93.1919 7.23444C93.0023 7.49773 92.8601 7.80315 92.7654 8.15069C92.6811 8.49824 92.639 8.84578 92.639 9.19332C92.639 9.5514 92.6811 9.90421 92.7654 10.2518C92.8601 10.5888 93.0023 10.8942 93.1919 11.168C93.3815 11.4418 93.6237 11.663 93.9186 11.8315C94.2135 12 94.561 12.0843 94.9612 12.0843Z" fill="#161819"/>
  <path d="M99.918 5.11758H101.608V6.69733H101.64C101.693 6.47616 101.793 6.26026 101.94 6.04963C102.098 5.839 102.282 5.64943 102.493 5.48092C102.714 5.30188 102.956 5.15971 103.22 5.05439C103.483 4.94907 103.752 4.89641 104.025 4.89641C104.236 4.89641 104.378 4.90168 104.452 4.91221C104.536 4.92274 104.62 4.93328 104.705 4.94381V6.68153C104.578 6.66046 104.447 6.64467 104.31 6.63414C104.183 6.61307 104.057 6.60254 103.931 6.60254C103.625 6.60254 103.336 6.66573 103.062 6.79211C102.798 6.90796 102.567 7.087 102.367 7.32922C102.167 7.56092 102.009 7.85054 101.893 8.19808C101.777 8.54563 101.719 8.94583 101.719 9.39869V13.2849H99.918V5.11758Z" fill="#161819"/>
  <path d="M110.139 8.48244C110.118 8.19808 110.054 7.92426 109.949 7.66097C109.854 7.39768 109.717 7.17125 109.538 6.98168C109.37 6.78158 109.159 6.6236 108.907 6.50776C108.664 6.38138 108.39 6.31819 108.085 6.31819C107.769 6.31819 107.479 6.37611 107.216 6.49196C106.963 6.59727 106.742 6.74998 106.553 6.95008C106.374 7.13965 106.226 7.36608 106.11 7.62938C106.005 7.89267 105.947 8.17702 105.937 8.48244H110.139ZM105.937 9.66725C105.937 9.9832 105.979 10.2886 106.063 10.5835C106.158 10.8784 106.295 11.1364 106.474 11.3576C106.653 11.5787 106.879 11.7578 107.153 11.8947C107.427 12.0211 107.753 12.0843 108.132 12.0843C108.659 12.0843 109.08 11.9737 109.396 11.7525C109.723 11.5208 109.965 11.1785 110.123 10.7257H111.829C111.734 11.168 111.571 11.5629 111.339 11.9105C111.108 12.258 110.829 12.5529 110.502 12.7951C110.176 13.0268 109.807 13.2006 109.396 13.3165C108.996 13.4428 108.575 13.506 108.132 13.506C107.49 13.506 106.921 13.4007 106.426 13.1901C105.931 12.9794 105.51 12.6846 105.163 12.3054C104.826 11.9263 104.567 11.4734 104.388 10.9468C104.22 10.4203 104.136 9.84102 104.136 9.20912C104.136 8.62988 104.225 8.08224 104.404 7.56619C104.594 7.0396 104.857 6.58148 105.194 6.19181C105.542 5.7916 105.958 5.47566 106.442 5.24396C106.927 5.01226 107.474 4.89641 108.085 4.89641C108.727 4.89641 109.301 5.03333 109.807 5.30715C110.323 5.57044 110.75 5.92325 111.087 6.36558C111.424 6.80791 111.666 7.31869 111.813 7.89793C111.971 8.46664 112.013 9.05641 111.94 9.66725H105.937Z" fill="#161819"/>
  <path d="M0.719238 5.25603C0.719238 8.1469 3.0844 10.512 5.97531 10.512C8.86622 10.512 11.2314 8.1469 11.2314 5.25603V0H5.97531C3.0844 0 0.719238 2.36512 0.719238 5.25603ZM5.97531 7.77486C4.58964 7.77486 3.45454 6.64166 3.45454 5.25603C3.45454 3.87036 4.58964 2.73526 5.97531 2.73526H8.49422V5.25603C8.49422 6.64166 7.36098 7.77486 5.97531 7.77486ZM5.97531 11.873C7.34959 11.873 8.62709 11.4497 9.6882 10.7265L11.2238 12.991C8.05572 15.1493 3.89494 15.1493 0.726861 12.991L2.26247 10.7265C3.32163 11.4497 4.60103 11.873 5.97531 11.873Z" fill="#161819"/>
</svg>