<svg xmlns="http://www.w3.org/2000/svg" width="12" height="12" viewBox="0 0 12 12" fill="none">
  <script xmlns=""/>
  <circle cx="6" cy="6" r="5.5" stroke="#161819"/>
  <path d="M3.288 8.20841L3.288 5.48041C3.288 4.85107 3.424 4.37907 3.696 4.06441C3.968 3.74974 4.34667 3.59241 4.832 3.59241C5.104 3.59241 5.33067 3.63241 5.512 3.71241C5.688 3.79241 5.832 3.88574 5.944 3.99241C6.05067 4.09907 6.128 4.20574 6.176 4.31241C6.224 4.41374 6.256 4.48841 6.272 4.53641L6.288 4.53641C6.29867 4.45107 6.32533 4.36041 6.368 4.26441C6.41067 4.16307 6.48 4.06974 6.576 3.98441C6.66667 3.89907 6.78667 3.82974 6.936 3.77641C7.08533 3.71774 7.272 3.68841 7.496 3.68841C7.832 3.68841 8.13867 3.66441 8.416 3.61641C8.688 3.56307 8.88267 3.48307 9 3.37641L9 4.44841C8.87733 4.52307 8.74133 4.56841 8.592 4.58441C8.44267 4.59507 8.29867 4.60041 8.16 4.60041C7.89867 4.60041 7.67467 4.61641 7.488 4.64841C7.296 4.68041 7.13867 4.73907 7.016 4.82441C6.888 4.90974 6.79467 5.02707 6.736 5.17641C6.67733 5.32041 6.648 5.50707 6.648 5.73641L6.648 7.20841L9 7.20841L9 8.20841L3.288 8.20841ZM5.888 7.20841L5.888 5.56841C5.888 5.24841 5.81333 5.00574 5.664 4.84041C5.50933 4.67507 5.28 4.59241 4.976 4.59241C4.79467 4.59241 4.648 4.61907 4.536 4.67241C4.41867 4.72574 4.328 4.80041 4.264 4.89641C4.2 4.98707 4.15733 5.09374 4.136 5.21641C4.11467 5.33374 4.104 5.45641 4.104 5.58441L4.104 7.20841L5.888 7.20841Z" fill="black"/>
</svg>